<svg width="45" height="45" viewBox="0 0 45 45" fill="none" xmlns="http://www.w3.org/2000/svg">
<path fill-rule="evenodd" clip-rule="evenodd" d="M12.1092 12.1073C12.3061 11.9104 12.5732 11.7998 12.8517 11.7998L19.1517 11.7998C19.7316 11.7998 20.2017 12.2699 20.2017 12.8498C20.2017 13.4297 19.7316 13.8998 19.1517 13.8998L15.3866 13.8998L19.8942 18.4073C20.3042 18.8174 20.3042 19.4822 19.8942 19.8923C19.4841 20.3023 18.8193 20.3023 18.4092 19.8923L13.9017 15.3847L13.9017 19.1498C13.9017 19.7297 13.4316 20.1998 12.8517 20.1998C12.2718 20.1998 11.8017 19.7297 11.8017 19.1498L11.8017 12.8498C11.8017 12.5713 11.9123 12.3043 12.1092 12.1073ZM25.7983 12.8498C25.7983 12.2699 26.2684 11.7998 26.8483 11.7998H33.1483C33.4268 11.7998 33.6938 11.9104 33.8908 12.1073C34.0877 12.3043 34.1983 12.5713 34.1983 12.8498L34.1983 19.1498C34.1983 19.7297 33.7282 20.1998 33.1483 20.1998C32.5684 20.1998 32.0983 19.7297 32.0983 19.1498L32.0983 15.3847L27.5908 19.8923C27.1807 20.3023 26.5159 20.3023 26.1058 19.8923C25.6958 19.4822 25.6958 18.8174 26.1058 18.4073L30.6134 13.8998H26.8483C26.2684 13.8998 25.7983 13.4297 25.7983 12.8498ZM11.8017 26.8498C11.8017 26.2699 12.2718 25.7998 12.8517 25.7998C13.4316 25.7998 13.9017 26.2699 13.9017 26.8498L13.9017 30.6149L18.4092 26.1073C18.8193 25.6973 19.4841 25.6973 19.8942 26.1073C20.3042 26.5174 20.3042 27.1822 19.8942 27.5923L15.3866 32.0998H19.1517C19.7316 32.0998 20.2017 32.5699 20.2017 33.1498C20.2017 33.7297 19.7316 34.1998 19.1517 34.1998H12.8517C12.5732 34.1998 12.3061 34.0892 12.1092 33.8923C11.9123 33.6954 11.8017 33.4283 11.8017 33.1498L11.8017 26.8498ZM26.1058 26.1073C26.5159 25.6973 27.1807 25.6973 27.5908 26.1073L32.0983 30.6149V26.8498C32.0983 26.2699 32.5684 25.7998 33.1483 25.7998C33.7282 25.7998 34.1983 26.2699 34.1983 26.8498V33.1498C34.1983 33.7297 33.7282 34.1998 33.1483 34.1998H26.8483C26.2684 34.1998 25.7983 33.7297 25.7983 33.1498C25.7983 32.5699 26.2684 32.0998 26.8483 32.0998H30.6134L26.1058 27.5923C25.6958 27.1822 25.6958 26.5174 26.1058 26.1073Z" fill="#3C3C3C"/>
</svg>
