<svg width="32" height="32" viewBox="0 0 32 32" fill="none" xmlns="http://www.w3.org/2000/svg">
<path fill-rule="evenodd" clip-rule="evenodd" d="M3.55338 3.55167C3.77842 3.32662 4.08364 3.2002 4.4019 3.2002L11.6019 3.2002C12.2646 3.2002 12.8019 3.73745 12.8019 4.4002C12.8019 5.06294 12.2646 5.6002 11.6019 5.6002L7.29896 5.6002L12.4504 10.7517C12.9191 11.2203 12.9191 11.9801 12.4504 12.4487C11.9818 12.9173 11.222 12.9173 10.7534 12.4487L5.6019 7.29725L5.6019 11.6002C5.6019 12.2629 5.06465 12.8002 4.4019 12.8002C3.73916 12.8002 3.2019 12.2629 3.2019 11.6002L3.2019 4.4002C3.2019 4.08194 3.32833 3.77671 3.55338 3.55167ZM19.198 4.4002C19.198 3.73745 19.7353 3.2002 20.398 3.2002H27.598C27.9163 3.2002 28.2215 3.32662 28.4465 3.55167C28.6716 3.77671 28.798 4.08194 28.798 4.4002L28.798 11.6002C28.798 12.2629 28.2608 12.8002 27.598 12.8002C26.9353 12.8002 26.398 12.2629 26.398 11.6002V7.29725L21.2465 12.4487C20.7779 12.9174 20.0181 12.9174 19.5495 12.4487C19.0809 11.9801 19.0809 11.2203 19.5495 10.7517L24.701 5.6002H20.398C19.7353 5.6002 19.198 5.06294 19.198 4.4002ZM3.2019 20.4002C3.2019 19.7375 3.73916 19.2002 4.4019 19.2002C5.06465 19.2002 5.6019 19.7375 5.6019 20.4002V24.7031L10.7534 19.5517C11.222 19.083 11.9818 19.083 12.4504 19.5517C12.9191 20.0203 12.9191 20.7801 12.4504 21.2487L7.29896 26.4002H11.6019C12.2646 26.4002 12.8019 26.9375 12.8019 27.6002C12.8019 28.2629 12.2646 28.8002 11.6019 28.8002H4.4019C4.08364 28.8002 3.77842 28.6738 3.55338 28.4487C3.32833 28.2237 3.2019 27.9185 3.2019 27.6002L3.2019 20.4002ZM19.5495 19.5517C20.0181 19.083 20.7779 19.083 21.2465 19.5517L26.398 24.7031V20.4002C26.398 19.7375 26.9353 19.2002 27.598 19.2002C28.2608 19.2002 28.798 19.7375 28.798 20.4002V27.6002C28.798 28.2629 28.2608 28.8002 27.598 28.8002H20.398C19.7353 28.8002 19.198 28.2629 19.198 27.6002C19.198 26.9375 19.7353 26.4002 20.398 26.4002H24.701L19.5495 21.2487C19.0809 20.7801 19.0809 20.0203 19.5495 19.5517Z" fill="#3C3C3C"/>
</svg>
