<svg width="32" height="32" viewBox="0 0 32 32" fill="none" xmlns="http://www.w3.org/2000/svg">
<path fill-rule="evenodd" clip-rule="evenodd" d="M16 4.0001C11.2252 4.0001 7.20005 8.20953 7.20005 13.6001C7.20005 16.2918 8.35967 19.0498 9.95737 21.5502C11.5452 24.0352 13.4946 26.155 14.9119 27.5449C15.5307 28.1517 16.4694 28.1517 17.0882 27.5449C18.5055 26.155 20.4549 24.0352 22.0427 21.5502C23.6404 19.0498 24.8 16.2918 24.8 13.6001C24.8 8.20953 20.7749 4.0001 16 4.0001ZM4.80005 13.6001C4.80005 7.06132 9.72917 1.6001 16 1.6001C22.2709 1.6001 27.2 7.06132 27.2 13.6001C27.2 16.9458 25.7768 20.1637 24.0651 22.8425C22.3436 25.5366 20.2571 27.7988 18.7685 29.2585C17.2164 30.7805 14.7837 30.7805 13.2316 29.2585C11.743 27.7988 9.65649 25.5366 7.93499 22.8425C6.22332 20.1637 4.80005 16.9458 4.80005 13.6001ZM16 10.4069C14.6746 10.4069 13.6 11.4814 13.6 12.8069C13.6 14.1324 14.6746 15.2069 16 15.2069C17.3255 15.2069 18.4 14.1324 18.4 12.8069C18.4 11.4814 17.3255 10.4069 16 10.4069ZM11.2 12.8069C11.2 10.1559 13.3491 8.00688 16 8.00688C18.651 8.00688 20.8 10.1559 20.8 12.8069C20.8 15.4579 18.651 17.6069 16 17.6069C13.3491 17.6069 11.2 15.4579 11.2 12.8069Z" fill="#3C3C3C"/>
</svg>
