<svg width="45" height="45" viewBox="0 0 45 45" fill="none" xmlns="http://www.w3.org/2000/svg">
<path fill-rule="evenodd" clip-rule="evenodd" d="M23 12.4999C18.8221 12.4999 15.3 16.1832 15.3 20.8999C15.3 23.2551 16.3147 25.6684 17.7127 27.8562C19.1021 30.0306 20.8077 31.8855 22.0479 33.1016C22.5894 33.6326 23.4107 33.6326 23.9521 33.1016C25.1923 31.8855 26.898 30.0306 28.2874 27.8562C29.6853 25.6684 30.7 23.2551 30.7 20.8999C30.7 16.1832 27.178 12.4999 23 12.4999ZM13.2 20.8999C13.2 15.1785 17.513 10.3999 23 10.3999C28.487 10.3999 32.8 15.1785 32.8 20.8999C32.8 23.8274 31.5547 26.6431 30.0569 28.987C28.5506 31.3443 26.7249 33.3238 25.4224 34.601C24.0643 35.9328 21.9357 35.9328 20.5776 34.601C19.2751 33.3238 17.4494 31.3443 15.9431 28.987C14.4454 26.6431 13.2 23.8274 13.2 20.8999ZM23 18.1058C21.8402 18.1058 20.9 19.046 20.9 20.2058C20.9 21.3656 21.8402 22.3058 23 22.3058C24.1598 22.3058 25.1 21.3656 25.1 20.2058C25.1 19.046 24.1598 18.1058 23 18.1058ZM18.8 20.2058C18.8 17.8862 20.6804 16.0058 23 16.0058C25.3196 16.0058 27.2 17.8862 27.2 20.2058C27.2 22.5254 25.3196 24.4058 23 24.4058C20.6804 24.4058 18.8 22.5254 18.8 20.2058Z" fill="#3C3C3C"/>
</svg>
