<svg width="18" height="18" viewBox="0 0 18 18" fill="none" xmlns="http://www.w3.org/2000/svg">
<path d="M9 0C7.4087 0 5.88258 0.632141 4.75736 1.75736C3.63214 2.88258 3 4.4087 3 6C3 10.05 8.2875 14.625 8.5125 14.82C8.64835 14.9362 8.82124 15 9 15C9.17876 15 9.35165 14.9362 9.4875 14.82C9.75 14.625 15 10.05 15 6C15 4.4087 14.3679 2.88258 13.2426 1.75736C12.1174 0.632141 10.5913 0 9 0V0ZM9 13.2375C7.4025 11.7375 4.5 8.505 4.5 6C4.5 4.80653 4.97411 3.66193 5.81802 2.81802C6.66193 1.97411 7.80653 1.5 9 1.5C10.1935 1.5 11.3381 1.97411 12.182 2.81802C13.0259 3.66193 13.5 4.80653 13.5 6C13.5 8.505 10.5975 11.745 9 13.2375ZM9 3C8.40666 3 7.82664 3.17595 7.33329 3.50559C6.83994 3.83524 6.45542 4.30377 6.22836 4.85195C6.0013 5.40013 5.94189 6.00333 6.05764 6.58527C6.1734 7.16721 6.45912 7.70176 6.87868 8.12132C7.29824 8.54088 7.83279 8.8266 8.41473 8.94236C8.99667 9.05811 9.59987 8.9987 10.1481 8.77164C10.6962 8.54458 11.1648 8.16006 11.4944 7.66671C11.8241 7.17336 12 6.59334 12 6C12 5.20435 11.6839 4.44129 11.1213 3.87868C10.5587 3.31607 9.79565 3 9 3ZM9 7.5C8.70333 7.5 8.41332 7.41203 8.16664 7.2472C7.91997 7.08238 7.72771 6.84811 7.61418 6.57403C7.50065 6.29994 7.47094 5.99834 7.52882 5.70737C7.5867 5.41639 7.72956 5.14912 7.93934 4.93934C8.14912 4.72956 8.41639 4.5867 8.70736 4.52882C8.99834 4.47094 9.29994 4.50065 9.57402 4.61418C9.84811 4.72771 10.0824 4.91997 10.2472 5.16665C10.412 5.41332 10.5 5.70333 10.5 6C10.5 6.39783 10.342 6.77936 10.0607 7.06066C9.77936 7.34197 9.39782 7.5 9 7.5Z" fill="black"/>
</svg>
