<svg width="45" height="45" viewBox="0 0 45 45" fill="none" xmlns="http://www.w3.org/2000/svg">
<path d="M32 29.6255H36V32.6255C36 33.1775 35.552 33.6255 35 33.6255H33C32.448 33.6255 32 33.1775 32 32.6255V29.6255Z" stroke="#3C3C3C" stroke-width="2"/>
<path d="M10 29.6255H14V32.6255C14 33.1775 13.552 33.6255 13 33.6255H11C10.448 33.6255 10 33.1775 10 32.6255V29.6255Z" stroke="#3C3C3C" stroke-width="2"/>
<path d="M14 19.6255H32C34.209 19.6255 36 21.4165 36 23.6255V28.6255C36 29.1775 35.552 29.6255 35 29.6255H11C10.448 29.6255 10 29.1775 10 28.6255V23.6255C10 21.4165 11.791 19.6255 14 19.6255Z" stroke="#3C3C3C" stroke-width="2"/>
<path d="M32 23.6255C32.552 23.6255 33 24.0735 33 24.6255C33 25.1775 32.552 25.6255 32 25.6255C31.448 25.6255 31 25.1775 31 24.6255C31 24.0735 31.448 23.6255 32 23.6255Z" fill="#3C3C3C"/>
<path d="M14 23.6255C14.552 23.6255 15 24.0735 15 24.6255C15 25.1775 14.552 25.6255 14 25.6255C13.448 25.6255 13 25.1775 13 24.6255C13 24.0735 13.448 23.6255 14 23.6255Z" fill="#3C3C3C"/>
<path d="M15.693 11.6255H30.307C30.724 11.6255 31.097 11.8845 31.243 12.2745L34 19.6255H12L14.757 12.2745C14.903 11.8845 15.276 11.6255 15.693 11.6255Z" stroke="#3C3C3C" stroke-width="2"/>
<path d="M9 16.6255H12V18.6255H9V16.6255Z" fill="#3C3C3C"/>
<path d="M34 16.6255H37V18.6255H34V16.6255Z" fill="#3C3C3C"/>
<path d="M17 24.6255H29" stroke="#3C3C3C" stroke-width="2"/>
</svg>
