<svg width="48" height="48" viewBox="0 0 48 48" fill="none" xmlns="http://www.w3.org/2000/svg">
<path d="M42.2032 25.0588C42.2032 23.9543 41.3078 23.0588 40.2032 23.0588C39.0986 23.0588 38.2032 23.9543 38.2032 25.0588H40.2032H42.2032ZM23.1016 10.1176C24.2062 10.1176 25.1016 9.22222 25.1016 8.11765C25.1016 7.01308 24.2062 6.11765 23.1016 6.11765V8.11765V10.1176ZM33.6524 25.0588C33.6524 23.9543 32.757 23.0588 31.6524 23.0588C30.5478 23.0588 29.6524 23.9543 29.6524 25.0588H31.6524H33.6524ZM23.1016 18.5882C24.2062 18.5882 25.1016 17.6928 25.1016 16.5882C25.1016 15.4837 24.2062 14.5882 23.1016 14.5882V16.5882V18.5882ZM32.0671 18.6512C32.8518 17.8739 32.8577 16.6075 32.0804 15.8228C31.303 15.0381 30.0367 15.0321 29.252 15.8095L30.6595 17.2304L32.0671 18.6512ZM21.6941 23.2965C20.9094 24.0739 20.9034 25.3402 21.6807 26.1249C22.4581 26.9096 23.7244 26.9156 24.5091 26.1382L23.1016 24.7174L21.6941 23.2965ZM42 11.9896L43.4075 13.4105C43.9473 12.8758 44.1375 12.0815 43.8984 11.3604C43.6594 10.6392 43.0325 10.1158 42.2802 10.0093L42 11.9896ZM35.1979 18.7279L34.5708 20.6271C35.285 20.8629 36.0711 20.6781 36.6054 20.1488L35.1979 18.7279ZM29.1515 12.7383L27.744 11.3174C27.202 11.8544 27.0127 12.653 27.256 13.3761L29.1515 12.7383ZM35.9537 6L37.9332 5.71453C37.8254 4.9669 37.3055 4.34379 36.5893 4.10371C35.8731 3.86363 35.0828 4.04753 34.5461 4.57914L35.9537 6ZM30.6631 17.2305L28.7676 17.8684C28.9683 18.465 29.4383 18.9323 30.036 19.1297L30.6631 17.2305ZM36.7095 11.2409L34.7299 11.5264C34.8568 12.4062 35.5491 13.0966 36.4292 13.2212L36.7095 11.2409ZM40.2032 25.0588H38.2032C38.2032 33.2929 31.4598 40 23.1016 40V42V44C33.6333 44 42.2032 35.5375 42.2032 25.0588H40.2032ZM23.1016 42V40C14.7434 40 8 33.2929 8 25.0588H6H4C4 35.5375 12.5699 44 23.1016 44V42ZM6 25.0588H8C8 16.8248 14.7434 10.1176 23.1016 10.1176V8.11765V6.11765C12.5699 6.11765 4 14.5802 4 25.0588H6ZM31.6524 25.0588H29.6524C29.6524 28.6147 26.7373 31.5294 23.1016 31.5294V33.5294V35.5294C28.9108 35.5294 33.6524 30.8593 33.6524 25.0588H31.6524ZM23.1016 33.5294V31.5294C19.4659 31.5294 16.5508 28.6147 16.5508 25.0588H14.5508H12.5508C12.5508 30.8593 17.2924 35.5294 23.1016 35.5294V33.5294ZM14.5508 25.0588H16.5508C16.5508 21.5029 19.4659 18.5882 23.1016 18.5882V16.5882V14.5882C17.2924 14.5882 12.5508 19.2583 12.5508 25.0588H14.5508ZM30.6595 17.2304L29.252 15.8095L21.6941 23.2965L23.1016 24.7174L24.5091 26.1382L32.0671 18.6512L30.6595 17.2304ZM42 11.9896L40.5925 10.5687L33.7903 17.3071L35.1979 18.7279L36.6054 20.1488L43.4075 13.4105L42 11.9896ZM29.1515 12.7383L30.5591 14.1592L37.3612 7.42086L35.9537 6L34.5461 4.57914L27.744 11.3174L29.1515 12.7383ZM35.1979 18.7279L35.825 16.8288L31.2902 15.3314L30.6631 17.2305L30.036 19.1297L34.5708 20.6271L35.1979 18.7279ZM30.6631 17.2305L32.5587 16.5927L31.0471 12.1005L29.1515 12.7383L27.256 13.3761L28.7676 17.8684L30.6631 17.2305ZM35.9537 6L33.9741 6.28547L34.7299 11.5264L36.7095 11.2409L38.689 10.9554L37.9332 5.71453L35.9537 6ZM36.7095 11.2409L36.4292 13.2212L41.7198 13.9699L42 11.9896L42.2802 10.0093L36.9897 9.26064L36.7095 11.2409Z" fill="#572D14"/>
</svg>
