<svg width="45" height="45" viewBox="0 0 45 45" fill="none" xmlns="http://www.w3.org/2000/svg">
<path d="M19.8619 31.5212H25.7929V33.4982H19.8619V31.5212ZM15.9079 33.4982V35.4752H29.7469V33.4982H27.7699V31.5212L28.8402 31.5173L29.055 31.512C31.6857 31.3999 31.5421 30.3179 28.8837 30.3179L16.4786 30.3271C13.8479 30.4391 13.9903 31.5212 16.6487 31.5212H17.8849V33.4982H15.9079Z" fill="#3C3C3C"/>
<path d="M12.9425 11.7514H32.7125L32.8865 11.7567C34.443 11.8463 35.678 13.1379 35.678 14.7169V26.5789L35.6727 26.7529C35.5831 28.3094 34.2915 29.5444 32.7125 29.5444H12.9425L12.7685 29.5391C11.212 29.4495 9.977 28.1579 9.977 26.5789V14.7169L9.98227 14.5429C10.0719 12.9864 11.3635 11.7514 12.9425 11.7514ZM27.77 31.5214H32.7125L32.9273 31.5175C35.5581 31.4054 37.655 29.2373 37.655 26.5789V14.7169L37.651 14.5021C37.539 11.8714 35.3709 9.77441 32.7125 9.77441H12.9425L12.7277 9.77837C10.0969 9.8904 8 12.0585 8 14.7169V26.5789L8.00395 26.7937C8.11598 29.4245 10.2841 31.5214 12.9425 31.5214H17.885H27.77Z" fill="#3C3C3C"/>
</svg>
