<svg width="92" height="92" viewBox="0 0 92 92" fill="none" xmlns="http://www.w3.org/2000/svg">
<path d="M0 46C0 71.4051 20.5949 92 46 92C71.4051 92 92 71.4051 92 46C92 20.5949 71.4051 0 46 0C20.5949 0 0 20.5949 0 46Z" fill="#25D366"/>
<path fill-rule="evenodd" clip-rule="evenodd" d="M62.1 29.6125C57.7875 25.3 52.0375 23 46 23C33.35 23 23 33.35 23 46C23 50.025 24.15 54.05 26.1625 57.5L23 69L35.075 65.8375C38.525 67.5625 42.2625 68.7125 46 68.7125C58.65 68.7125 69 58.3625 69 45.7125C69 39.675 66.4125 33.925 62.1 29.6125ZM46 64.975C42.55 64.975 39.1 64.1125 36.225 62.3875L35.65 62.1L28.4625 64.1125L30.475 57.2125L29.9 56.35C27.8875 53.1875 27.025 49.7375 27.025 46.2875C27.025 35.9375 35.65 27.3125 46 27.3125C51.175 27.3125 55.775 29.325 59.5125 32.775C63.25 36.5125 64.975 41.1125 64.975 46.2875C64.975 56.35 56.6375 64.975 46 64.975ZM56.35 50.6C55.775 50.3125 52.9 48.875 52.325 48.875C51.75 48.5875 51.4625 48.5875 51.175 49.1625C50.8875 49.7375 49.7375 50.8875 49.45 51.4625C49.1625 51.75 48.875 51.75 48.3 51.75C47.725 51.4625 46 50.8875 43.7 48.875C41.975 47.4375 40.825 45.425 40.5375 44.85C40.25 44.275 40.5375 43.9875 40.825 43.7C41.1125 43.4125 41.4 43.125 41.6875 42.8375C41.975 42.55 41.975 42.2625 42.2625 41.975C42.55 41.6875 42.2625 41.4 42.2625 41.1125C42.2625 40.825 41.1125 37.95 40.5375 36.8C40.25 35.9375 39.675 35.9375 39.3875 35.9375C39.1 35.9375 38.8125 35.9375 38.2375 35.9375C37.95 35.9375 37.375 35.9375 36.8 36.5125C36.225 37.0875 34.7875 38.525 34.7875 41.4C34.7875 44.275 36.8 46.8625 37.0875 47.4375C37.375 47.725 41.1125 53.7625 46.8625 56.0625C51.75 58.075 52.6125 57.5 53.7625 57.5C54.9125 57.5 57.2125 56.0625 57.5 54.9125C58.075 53.475 58.075 52.325 57.7875 52.325C57.5 50.8875 56.925 50.8875 56.35 50.6Z" fill="white"/>
</svg>
